<svg xmlns="http://www.w3.org/2000/svg" width="100" height="28" viewBox="0 0 100 28" fill="none">
  <path
    d="M47.3283 14.057C48.5686 13.0254 49.3167 11.4228 49.1592 9.65879C48.9308 7.09154 46.4975 5.00073 43.9184 5.00073H35.0039V23.1132H43.9184C46.4975 23.1132 48.9308 21.0264 49.1592 18.4552C49.3167 16.6872 48.5686 15.0847 47.3283 14.057ZM37.3664 7.36323H44.0602C45.58 7.36323 46.8164 8.59961 46.8164 10.1195C46.8164 11.6394 45.58 12.8757 44.0602 12.8757H37.3664V7.36323ZM44.0602 20.7507H37.3664V15.2382H44.0602C45.58 15.2382 46.8164 16.4746 46.8164 17.9945C46.8164 19.5144 45.58 20.7507 44.0602 20.7507Z"
    fill="white"
  />
  <path
    d="M63.1803 8.93848V10.7576C61.7746 9.49366 59.8689 8.77704 57.7977 8.96604C54.4863 9.26923 51.7734 11.9192 51.4111 15.2267C50.9425 19.491 54.2855 23.1135 58.4553 23.1135C60.2705 23.1135 61.9242 22.4205 63.1803 21.2944V23.1135H65.5428V8.93848H63.1803ZM58.4553 20.751C55.8487 20.751 53.7303 18.6326 53.7303 16.026C53.7303 13.4194 55.8487 11.301 58.4553 11.301C61.0619 11.301 63.1803 13.4194 63.1803 16.026C63.1803 18.6326 61.0619 20.751 58.4553 20.751Z"
    fill="white"
  />
  <path
    d="M97.0944 5.00073V10.7574C95.6887 9.49342 93.7829 8.77679 91.7118 8.96579C88.4004 9.26898 85.6874 11.9189 85.3252 15.2264C84.8566 19.4907 88.1995 23.1132 92.3694 23.1132C94.1845 23.1132 95.8383 22.4202 97.0944 21.2941V23.1132H99.4569V5.00073H97.0944ZM92.3694 20.7507C89.7627 20.7507 87.6444 18.6324 87.6444 16.0257C87.6444 13.4191 89.7627 11.3007 92.3694 11.3007C94.976 11.3007 97.0944 13.4191 97.0944 16.0257C97.0944 18.6324 94.976 20.7507 92.3694 20.7507Z"
    fill="white"
  />
  <path
    d="M76.2772 8.94634C74.3557 8.87152 72.5995 9.57634 71.2805 10.7615V8.9424H68.918V23.1174H71.2805V16.1677C71.2805 13.7068 73.1035 11.5569 75.5487 11.3246C78.3562 11.0608 80.7305 13.2736 80.7305 16.0299V23.1174H83.093V16.2071C83.093 12.368 80.1123 9.09202 76.2772 8.94634Z"
    fill="white"
  />
  <path
    d="M26.0102 5.6525C25.612 5.35938 25.1702 5.13188 24.6845 4.96562C24.2645 4.82125 23.8183 4.72937 23.3458 4.68125C23.2977 4.20875 23.2014 3.7625 23.0614 3.34688C22.8952 2.86563 22.6677 2.41937 22.3789 2.02125C22.2345 1.82437 22.077 1.63187 21.902 1.45687C20.9133 0.4725 19.5439 0 17.947 0C14.5083 0 10.037 2.19187 6.12578 6.09875C3.50516 8.71937 1.54516 11.7163 0.604532 14.5338C-0.436719 17.6575 -0.126093 20.265 1.48391 21.875C1.65016 22.0413 1.82953 22.1856 2.01766 22.3256C2.41578 22.6187 2.85766 22.855 3.34328 23.0212C3.75891 23.1656 4.20953 23.2619 4.68641 23.3144C4.73453 23.7869 4.83516 24.2331 4.97953 24.6531C5.14578 25.1344 5.37766 25.5763 5.67078 25.9744C5.81078 26.1625 5.96391 26.3463 6.13016 26.5169C7.11453 27.5012 8.47516 28 10.0983 28C11.1264 28 12.2595 27.7987 13.4714 27.3962C16.2889 26.4556 19.2858 24.4956 21.9064 21.875C27.6289 16.1525 29.6677 9.2225 26.5483 6.09875C26.382 5.9325 26.2027 5.78813 26.0189 5.6525H26.0102ZM20.047 20.02C17.7108 22.3562 15.077 24.0931 12.6402 24.9069C11.7039 25.2175 10.8464 25.375 10.107 25.375C9.86203 25.375 9.63016 25.3531 9.41141 25.3181C8.81641 25.2262 8.33078 25.0075 7.98078 24.6575C7.90203 24.5787 7.83641 24.4869 7.77516 24.395C7.53891 24.0625 7.38578 23.6425 7.32016 23.1525C7.21516 22.3825 7.31578 21.4375 7.63078 20.3744C7.66578 20.2519 7.69641 20.1294 7.74016 20.0025C7.87578 19.6 8.04203 19.1887 8.22578 18.7775C8.51453 18.1344 8.86016 17.4825 9.25828 16.8306C10.142 15.3825 11.2795 13.9388 12.627 12.5913C14.0358 11.1825 15.4795 10.0625 16.8708 9.20937C17.2602 8.505 17.5839 7.80937 17.807 7.13562C18.0258 6.48375 18.1089 5.985 18.1308 5.635C15.707 6.63688 13.1345 8.36938 10.772 10.7362C8.47953 13.0244 6.69453 15.6056 5.65328 18.0994C5.50453 18.4581 5.36891 18.8169 5.25078 19.1713C5.22453 19.25 5.20266 19.3244 5.18078 19.4031C5.04078 19.8406 4.93141 20.2738 4.84828 20.6894C4.35391 20.6194 3.93828 20.4575 3.60578 20.2169C3.51828 20.1512 3.42641 20.0944 3.34766 20.02C2.99766 19.67 2.78328 19.1756 2.69141 18.5806C2.55578 17.71 2.68703 16.6119 3.10266 15.365C3.91641 12.9237 5.65328 10.2944 7.98953 7.95813C11.5858 4.36188 15.4314 2.6075 17.9252 2.6075C18.1833 2.6075 18.4239 2.62937 18.6514 2.66875C19.2333 2.765 19.7145 2.97938 20.0514 3.32063C20.1302 3.39938 20.2002 3.49563 20.2658 3.59188C20.502 3.92875 20.6508 4.34875 20.7164 4.84312C20.817 5.60875 20.7164 6.545 20.4058 7.595C20.3664 7.72188 20.3358 7.84437 20.292 7.97563C20.1564 8.37813 19.9902 8.785 19.8064 9.19625C19.5177 9.84375 19.172 10.4912 18.7739 11.1431C17.8902 12.5912 16.7527 14.035 15.4052 15.3825C14.0577 16.73 12.6139 17.8675 11.1658 18.7512C10.772 19.46 10.4483 20.16 10.2252 20.8381C10.0064 21.4988 9.92328 22.0019 9.90141 22.3563C12.3952 21.315 14.972 19.53 17.2645 17.2375C19.5527 14.9494 21.3377 12.3725 22.3789 9.87875C22.5277 9.52 22.6633 9.15687 22.7858 8.8025C22.812 8.72375 22.8339 8.64937 22.8558 8.575C22.9958 8.13312 23.1052 7.70437 23.1883 7.28875C23.6827 7.35875 24.0983 7.52062 24.4308 7.76125C24.5183 7.82687 24.6102 7.88375 24.6889 7.95813C25.0345 8.30375 25.2533 8.79813 25.3452 9.40187C25.7214 11.8344 23.9977 16.0781 20.047 20.0244V20.02Z"
    fill="#8F8FFF"
  />
</svg>
