<svg width="50" height="50" viewBox="0 0 50 50" fill="none" xmlns="http://www.w3.org/2000/svg">
<path d="M46.4355 10.0937C45.7247 9.57031 44.9358 9.16406 44.0689 8.86719C43.319 8.60937 42.5224 8.44531 41.6788 8.35938C41.5929 7.51563 41.4211 6.71875 41.1711 5.97656C40.8743 5.11719 40.4682 4.32031 39.9527 3.60937C39.6949 3.25781 39.4137 2.91406 39.1013 2.60156C37.3361 0.84375 34.8914 0 32.0405 0C25.9014 0 17.9189 3.91406 10.9363 10.8906C6.25769 15.5703 2.75854 20.9219 1.07926 25.9531C-0.779666 31.5313 -0.225112 36.1875 2.64919 39.0625C2.946 39.3594 3.26623 39.6172 3.60209 39.8672C4.31285 40.3906 5.10172 40.8125 5.9687 41.1094C6.71071 41.3672 7.5152 41.5391 8.36656 41.6328C8.45248 42.4766 8.63212 43.2734 8.88987 44.0234C9.18667 44.8828 9.60064 45.6719 10.1239 46.3828C10.3739 46.7187 10.6473 47.0469 10.9441 47.3516C12.7014 49.1094 15.1305 50 18.0283 50C19.8638 50 21.8867 49.6406 24.0503 48.9219C29.0803 47.2422 34.4306 43.7422 39.1091 39.0625C49.3254 28.8437 52.9652 16.4687 47.3962 10.8906C47.0994 10.5937 46.7791 10.3359 46.4511 10.0937H46.4355ZM35.7896 35.75C31.6187 39.9219 26.9168 43.0234 22.5663 44.4766C20.8948 45.0312 19.3639 45.3125 18.0439 45.3125C17.6065 45.3125 17.1926 45.2734 16.802 45.2109C15.7398 45.0469 14.8728 44.6562 14.248 44.0312C14.1074 43.8906 13.9902 43.7266 13.8809 43.5625C13.4591 42.9687 13.1857 42.2187 13.0685 41.3437C12.8811 39.9687 13.0607 38.2812 13.6231 36.3828C13.6856 36.1641 13.7403 35.9453 13.8184 35.7187C14.0605 35 14.3573 34.2656 14.6853 33.5312C15.2008 32.3828 15.8179 31.2188 16.5286 30.0547C18.1064 27.4688 20.1372 24.8906 22.5428 22.4844C25.0578 19.9688 27.6353 17.9687 30.1191 16.4453C30.8143 15.1875 31.3922 13.9453 31.7906 12.7422C32.1811 11.5781 32.3295 10.6875 32.3686 10.0625C28.0415 11.8516 23.4489 14.9453 19.2311 19.1719C15.1384 23.2578 11.9516 27.8672 10.0927 32.3203C9.82714 32.9609 9.58502 33.6016 9.37413 34.2344C9.32727 34.375 9.28821 34.5078 9.24916 34.6484C8.99922 35.4297 8.80395 36.2031 8.65555 36.9453C7.77295 36.8203 7.03095 36.5312 6.43734 36.1016C6.28113 35.9844 6.1171 35.8828 5.97651 35.75C5.35166 35.125 4.96894 34.2422 4.80492 33.1797C4.56279 31.625 4.79711 29.6641 5.53912 27.4375C6.99189 23.0781 10.0927 18.3828 14.2636 14.2109C20.6839 7.78906 27.5494 4.65625 32.0015 4.65625C32.4623 4.65625 32.8919 4.69531 33.298 4.76562C34.3368 4.9375 35.196 5.32031 35.7974 5.92969C35.938 6.07031 36.063 6.24219 36.1801 6.41406C36.6019 7.01563 36.8675 7.76562 36.9846 8.64844C37.1643 10.0156 36.9846 11.6875 36.4301 13.5625C36.3598 13.7891 36.3051 14.0078 36.227 14.2422C35.9849 14.9609 35.6881 15.6875 35.36 16.4219C34.8445 17.5781 34.2275 18.7344 33.5167 19.8984C31.939 22.4844 29.9082 25.0625 27.5026 27.4687C25.0969 29.875 22.5194 31.9062 19.9341 33.4844C19.2311 34.75 18.6531 36 18.2548 37.2109C17.8643 38.3906 17.7159 39.2891 17.6768 39.9219C22.1289 38.0625 26.7293 34.875 30.8221 30.7813C34.907 26.6953 38.0937 22.0937 39.9527 17.6406C40.2182 17 40.4604 16.3516 40.6791 15.7187C40.7259 15.5781 40.765 15.4453 40.804 15.3125C41.054 14.5234 41.2492 13.7578 41.3976 13.0156C42.2802 13.1406 43.0222 13.4297 43.6159 13.8594C43.7721 13.9766 43.9361 14.0781 44.0767 14.2109C44.6937 14.8281 45.0842 15.7109 45.2483 16.7891C45.92 21.1328 42.8426 28.7109 35.7896 35.7578V35.75Z" fill="#8F8FFF"/>
</svg>
